<?xml version="1.0" encoding="utf-8"?>
<!-- Generator: Adobe Illustrator 19.0.0, SVG Export Plug-In . SVG Version: 6.00 Build 0)  -->
<svg version="1.1" id="Layer_1" xmlns="http://www.w3.org/2000/svg" xmlns:xlink="http://www.w3.org/1999/xlink" x="0px" y="0px"
	 viewBox="-285 408.9 24 24" style="enable-background:new -285 408.9 24 24;" xml:space="preserve">
<style type="text/css">
	.st0{fill:#5C00CE;}
</style>
<path class="st0" d="M-263.2,426.3c0-0.1,0-0.3,0-0.4l0.7-10.6l0,0l0.2-2.7l-11.6,0.2l-1-0.1l-0.8,11c-1.2-0.6-2.9-0.6-4.6,0.3
	c-2.5,1.3-3.8,3.8-3,5.6c0.8,1.8,3.4,2.3,5.9,1c1.7-0.9,2.9-2.4,3.2-3.8l0,0l0-0.2c0-0.1,0-0.3,0-0.4l0.7-10.3l9.5-0.5l-0.6,8
	c-1.2-0.7-2.9-0.6-4.6,0.3c-2.4,1.3-3.8,3.8-3,5.6c0.8,1.8,3.4,2.3,5.9,1c1.7-0.9,2.9-2.4,3.2-3.8h0L-263.2,426.3z"/>
</svg>
